<mxfile host="app.diagrams.net" agent="Mozilla/5.0 (Windows NT 10.0; Win64; x64) AppleWebKit/537.36 (KHTML, like Gecko) Chrome/132.0.0.0 Safari/537.36 OPR/117.0.0.0" version="26.2.14">
  <diagram name="Page-1" id="e7e014a7-5840-1c2e-5031-d8a46d1fe8dd">
    <mxGraphModel dx="1039" dy="623" grid="0" gridSize="10" guides="1" tooltips="1" connect="1" arrows="1" fold="1" page="1" pageScale="1" pageWidth="827" pageHeight="1169" background="none" math="0" shadow="0">
      <root>
        <mxCell id="0" />
        <mxCell id="1" parent="0" />
        <mxCell id="_ejCU_rRlJFC165mmWsl-280" value="" style="rounded=1;whiteSpace=wrap;html=1;arcSize=40;fontColor=#000000;fillColor=light-dark(#FFFFFF,#FFFFFF);strokeColor=light-dark(#000000, #ff9090);fillStyle=solid;pointerEvents=0;align=center;verticalAlign=top;fontFamily=Helvetica;fontSize=12;labelBackgroundColor=light-dark(#000000,#000000);" vertex="1" parent="1">
          <mxGeometry x="467" y="533" width="106" height="29" as="geometry" />
        </mxCell>
        <mxCell id="_ejCU_rRlJFC165mmWsl-41" value="&lt;p style=&quot;margin:0px;margin-top:4px;text-align:center;&quot;&gt;&lt;b&gt;Acteur&lt;/b&gt;&lt;/p&gt;" style="verticalAlign=top;align=left;overflow=fill;html=1;whiteSpace=wrap;movable=1;resizable=1;rotatable=1;deletable=1;editable=1;locked=0;connectable=1;" vertex="1" parent="1">
          <mxGeometry x="69" y="34" width="267" height="902" as="geometry" />
        </mxCell>
        <mxCell id="_ejCU_rRlJFC165mmWsl-43" value="&lt;p style=&quot;margin:0px;margin-top:4px;text-align:center;&quot;&gt;&lt;b&gt;Système de gestion&lt;/b&gt;&lt;/p&gt;" style="verticalAlign=top;align=left;overflow=fill;html=1;whiteSpace=wrap;movable=1;resizable=1;rotatable=1;deletable=1;editable=1;locked=0;connectable=1;" vertex="1" parent="1">
          <mxGeometry x="336" y="34" width="267" height="902" as="geometry" />
        </mxCell>
        <mxCell id="_ejCU_rRlJFC165mmWsl-52" value="" style="rounded=1;whiteSpace=wrap;html=1;arcSize=40;fontColor=#000000;fillColor=light-dark(#FFFFFF,#FFFFFF);strokeColor=light-dark(#000000, #ff9090);fillStyle=solid;pointerEvents=0;align=center;verticalAlign=top;fontFamily=Helvetica;fontSize=12;labelBackgroundColor=light-dark(#000000,#000000);" vertex="1" parent="1">
          <mxGeometry x="122" y="114" width="116" height="29" as="geometry" />
        </mxCell>
        <mxCell id="_ejCU_rRlJFC165mmWsl-48" value="" style="group;labelBackgroundColor=light-dark(#000000,#000000);fillColor=none;fillStyle=solid;imageAspect=1;" vertex="1" connectable="0" parent="1">
          <mxGeometry x="171" y="66" width="40" height="76" as="geometry" />
        </mxCell>
        <mxCell id="_ejCU_rRlJFC165mmWsl-46" value="" style="ellipse;html=1;shape=startState;fillColor=#000000;strokeColor=light-dark(#000000,#000000);labelBorderColor=default;" vertex="1" parent="_ejCU_rRlJFC165mmWsl-48">
          <mxGeometry x="-4.5" width="24" height="21.666666666666668" as="geometry" />
        </mxCell>
        <mxCell id="_ejCU_rRlJFC165mmWsl-47" value="" style="edgeStyle=orthogonalEdgeStyle;html=1;verticalAlign=bottom;endArrow=open;endSize=8;strokeColor=#000000;rounded=0;entryX=0.5;entryY=0;entryDx=0;entryDy=0;" edge="1" source="_ejCU_rRlJFC165mmWsl-46" parent="_ejCU_rRlJFC165mmWsl-48" target="_ejCU_rRlJFC165mmWsl-54">
          <mxGeometry relative="1" as="geometry">
            <mxPoint x="11" y="39" as="targetPoint" />
          </mxGeometry>
        </mxCell>
        <mxCell id="_ejCU_rRlJFC165mmWsl-54" value="&lt;font style=&quot;font-size: 8px;&quot;&gt;Demander les offres&lt;/font&gt;" style="text;html=1;align=center;verticalAlign=middle;whiteSpace=wrap;rounded=0;fontFamily=Helvetica;fontSize=12;fontColor=default;labelBackgroundColor=none;" vertex="1" parent="_ejCU_rRlJFC165mmWsl-48">
          <mxGeometry x="-39" y="46" width="93" height="30" as="geometry" />
        </mxCell>
        <mxCell id="_ejCU_rRlJFC165mmWsl-56" value="" style="endArrow=classic;html=1;rounded=0;fontFamily=Helvetica;fontSize=12;fontColor=default;labelBackgroundColor=light-dark(#000000,#000000);exitX=1;exitY=0.5;exitDx=0;exitDy=0;" edge="1" parent="1">
          <mxGeometry width="50" height="50" relative="1" as="geometry">
            <mxPoint x="240" y="129.5" as="sourcePoint" />
            <mxPoint x="445" y="128" as="targetPoint" />
          </mxGeometry>
        </mxCell>
        <mxCell id="_ejCU_rRlJFC165mmWsl-57" value="" style="rounded=1;whiteSpace=wrap;html=1;arcSize=40;fontColor=#000000;fillColor=light-dark(#FFFFFF,#FFFFFF);strokeColor=light-dark(#000000, #ff9090);fillStyle=solid;pointerEvents=0;align=center;verticalAlign=top;fontFamily=Helvetica;fontSize=12;labelBackgroundColor=light-dark(#000000,#000000);" vertex="1" parent="1">
          <mxGeometry x="449" y="113" width="116" height="29" as="geometry" />
        </mxCell>
        <mxCell id="_ejCU_rRlJFC165mmWsl-58" value="&lt;font style=&quot;font-size: 8px;&quot;&gt;Afiicher les offres&lt;/font&gt;" style="text;html=1;align=center;verticalAlign=middle;whiteSpace=wrap;rounded=0;fontFamily=Helvetica;fontSize=12;fontColor=default;labelBackgroundColor=none;" vertex="1" parent="1">
          <mxGeometry x="459" y="111" width="93" height="30" as="geometry" />
        </mxCell>
        <mxCell id="_ejCU_rRlJFC165mmWsl-59" value="" style="rounded=1;whiteSpace=wrap;html=1;arcSize=40;fontColor=#000000;fillColor=light-dark(#FFFFFF,#FFFFFF);strokeColor=light-dark(#000000, #ff9090);fillStyle=solid;pointerEvents=0;align=center;verticalAlign=top;fontFamily=Helvetica;fontSize=12;labelBackgroundColor=light-dark(#000000,#000000);" vertex="1" parent="1">
          <mxGeometry x="123" y="159" width="116" height="29" as="geometry" />
        </mxCell>
        <mxCell id="_ejCU_rRlJFC165mmWsl-60" value="&lt;font style=&quot;font-size: 8px;&quot;&gt;Sélectionner une offre&lt;/font&gt;" style="text;html=1;align=center;verticalAlign=middle;whiteSpace=wrap;rounded=0;fontFamily=Helvetica;fontSize=12;fontColor=default;labelBackgroundColor=none;" vertex="1" parent="1">
          <mxGeometry x="133" y="156" width="93" height="30" as="geometry" />
        </mxCell>
        <mxCell id="_ejCU_rRlJFC165mmWsl-62" value="" style="endArrow=classic;html=1;rounded=0;fontFamily=Helvetica;fontSize=12;fontColor=default;labelBackgroundColor=light-dark(#000000,#000000);entryX=1;entryY=0.5;entryDx=0;entryDy=0;exitX=0.5;exitY=1;exitDx=0;exitDy=0;" edge="1" parent="1" source="_ejCU_rRlJFC165mmWsl-58" target="_ejCU_rRlJFC165mmWsl-59">
          <mxGeometry width="50" height="50" relative="1" as="geometry">
            <mxPoint x="393" y="246" as="sourcePoint" />
            <mxPoint x="443" y="196" as="targetPoint" />
            <Array as="points">
              <mxPoint x="506" y="174" />
            </Array>
          </mxGeometry>
        </mxCell>
        <mxCell id="_ejCU_rRlJFC165mmWsl-63" value="" style="endArrow=classic;html=1;rounded=0;fontFamily=Helvetica;fontSize=12;fontColor=default;labelBackgroundColor=light-dark(#000000,#000000);exitX=0.423;exitY=1.087;exitDx=0;exitDy=0;exitPerimeter=0;" edge="1" parent="1" source="_ejCU_rRlJFC165mmWsl-60">
          <mxGeometry width="50" height="50" relative="1" as="geometry">
            <mxPoint x="186.998" y="207.99999999999997" as="sourcePoint" />
            <mxPoint x="451" y="209" as="targetPoint" />
            <Array as="points">
              <mxPoint x="172" y="209" />
            </Array>
          </mxGeometry>
        </mxCell>
        <mxCell id="_ejCU_rRlJFC165mmWsl-64" value="" style="rounded=1;whiteSpace=wrap;html=1;arcSize=40;fontColor=#000000;fillColor=light-dark(#FFFFFF,#FFFFFF);strokeColor=light-dark(#000000, #ff9090);fillStyle=solid;pointerEvents=0;align=center;verticalAlign=top;fontFamily=Helvetica;fontSize=12;labelBackgroundColor=light-dark(#000000,#000000);" vertex="1" parent="1">
          <mxGeometry x="452" y="193" width="116" height="29" as="geometry" />
        </mxCell>
        <mxCell id="_ejCU_rRlJFC165mmWsl-65" value="&lt;font style=&quot;font-size: 8px;&quot;&gt;Détail de l&#39;offre&lt;/font&gt;" style="text;html=1;align=center;verticalAlign=middle;whiteSpace=wrap;rounded=0;fontFamily=Helvetica;fontSize=12;fontColor=default;labelBackgroundColor=none;" vertex="1" parent="1">
          <mxGeometry x="462" y="190" width="93" height="30" as="geometry" />
        </mxCell>
        <mxCell id="_ejCU_rRlJFC165mmWsl-67" value="" style="endArrow=classic;html=1;rounded=0;fontFamily=Helvetica;fontSize=12;fontColor=default;labelBackgroundColor=light-dark(#000000,#000000);" edge="1" parent="1">
          <mxGeometry width="50" height="50" relative="1" as="geometry">
            <mxPoint x="509" y="222" as="sourcePoint" />
            <mxPoint x="247" y="249" as="targetPoint" />
            <Array as="points">
              <mxPoint x="509" y="249" />
            </Array>
          </mxGeometry>
        </mxCell>
        <mxCell id="_ejCU_rRlJFC165mmWsl-68" value="" style="rounded=1;whiteSpace=wrap;html=1;arcSize=40;fontColor=#000000;fillColor=light-dark(#FFFFFF,#FFFFFF);strokeColor=light-dark(#000000, #ff9090);fillStyle=solid;pointerEvents=0;align=center;verticalAlign=top;fontFamily=Helvetica;fontSize=12;labelBackgroundColor=light-dark(#000000,#000000);" vertex="1" parent="1">
          <mxGeometry x="129" y="235" width="116" height="29" as="geometry" />
        </mxCell>
        <mxCell id="_ejCU_rRlJFC165mmWsl-69" value="&lt;font style=&quot;font-size: 8px;&quot;&gt;Demander une offre&lt;/font&gt;" style="text;html=1;align=center;verticalAlign=middle;whiteSpace=wrap;rounded=0;fontFamily=Helvetica;fontSize=12;fontColor=default;labelBackgroundColor=none;" vertex="1" parent="1">
          <mxGeometry x="139" y="232" width="93" height="30" as="geometry" />
        </mxCell>
        <mxCell id="_ejCU_rRlJFC165mmWsl-70" value="" style="endArrow=classic;html=1;rounded=0;fontFamily=Helvetica;fontSize=12;fontColor=default;labelBackgroundColor=light-dark(#000000,#000000);exitX=0.301;exitY=1.067;exitDx=0;exitDy=0;exitPerimeter=0;" edge="1" parent="1" source="_ejCU_rRlJFC165mmWsl-69">
          <mxGeometry width="50" height="50" relative="1" as="geometry">
            <mxPoint x="116.00300000000004" y="261.99999999999994" as="sourcePoint" />
            <mxPoint x="394.5" y="289.82" as="targetPoint" />
            <Array as="points">
              <mxPoint x="167" y="290" />
            </Array>
          </mxGeometry>
        </mxCell>
        <mxCell id="_ejCU_rRlJFC165mmWsl-71" value="" style="rounded=1;whiteSpace=wrap;html=1;arcSize=40;fontColor=#000000;fillColor=light-dark(#FFFFFF,#FFFFFF);strokeColor=light-dark(#000000, #ff9090);fillStyle=solid;pointerEvents=0;align=center;verticalAlign=top;fontFamily=Helvetica;fontSize=12;labelBackgroundColor=light-dark(#000000,#000000);" vertex="1" parent="1">
          <mxGeometry x="394" y="273" width="116" height="29" as="geometry" />
        </mxCell>
        <mxCell id="_ejCU_rRlJFC165mmWsl-219" style="edgeStyle=orthogonalEdgeStyle;rounded=0;orthogonalLoop=1;jettySize=auto;html=1;fontFamily=Helvetica;fontSize=12;fontColor=default;labelBackgroundColor=light-dark(#000000,#000000);" edge="1" parent="1" source="_ejCU_rRlJFC165mmWsl-72">
          <mxGeometry relative="1" as="geometry">
            <mxPoint x="453.5" y="325.4058574808055" as="targetPoint" />
          </mxGeometry>
        </mxCell>
        <mxCell id="_ejCU_rRlJFC165mmWsl-72" value="&lt;font style=&quot;font-size: 8px;&quot;&gt;Demande de s&#39;authentifier&lt;/font&gt;" style="text;html=1;align=center;verticalAlign=middle;whiteSpace=wrap;rounded=0;fontFamily=Helvetica;fontSize=12;fontColor=default;labelBackgroundColor=none;" vertex="1" parent="1">
          <mxGeometry x="402" y="272" width="103" height="30" as="geometry" />
        </mxCell>
        <mxCell id="_ejCU_rRlJFC165mmWsl-223" style="edgeStyle=orthogonalEdgeStyle;rounded=0;orthogonalLoop=1;jettySize=auto;html=1;fontFamily=Helvetica;fontSize=12;fontColor=default;labelBackgroundColor=light-dark(#000000,#000000);" edge="1" parent="1" source="_ejCU_rRlJFC165mmWsl-79">
          <mxGeometry relative="1" as="geometry">
            <mxPoint x="188.9999999999999" y="367.9346071440598" as="targetPoint" />
          </mxGeometry>
        </mxCell>
        <mxCell id="_ejCU_rRlJFC165mmWsl-79" value="" style="rounded=1;whiteSpace=wrap;html=1;arcSize=40;fontColor=#000000;fillColor=light-dark(#FFFFFF,#FFFFFF);strokeColor=light-dark(#000000, #ff9090);fillStyle=solid;pointerEvents=0;align=center;verticalAlign=top;fontFamily=Helvetica;fontSize=12;labelBackgroundColor=light-dark(#000000,#000000);" vertex="1" parent="1">
          <mxGeometry x="131" y="315" width="116" height="29" as="geometry" />
        </mxCell>
        <mxCell id="_ejCU_rRlJFC165mmWsl-80" value="&lt;font style=&quot;font-size: 8px;&quot;&gt;Remplir le formulaire&lt;/font&gt;" style="text;html=1;align=center;verticalAlign=middle;whiteSpace=wrap;rounded=0;fontFamily=Helvetica;fontSize=12;fontColor=default;labelBackgroundColor=none;" vertex="1" parent="1">
          <mxGeometry x="141.5" y="314" width="93" height="30" as="geometry" />
        </mxCell>
        <mxCell id="_ejCU_rRlJFC165mmWsl-95" value="" style="rounded=1;whiteSpace=wrap;html=1;arcSize=40;fontColor=#000000;fillColor=light-dark(#FFFFFF,#FFFFFF);strokeColor=light-dark(#000000, #ff9090);fillStyle=solid;pointerEvents=0;align=center;verticalAlign=top;fontFamily=Helvetica;fontSize=12;labelBackgroundColor=light-dark(#000000,#000000);" vertex="1" parent="1">
          <mxGeometry x="124" y="592" width="116" height="29" as="geometry" />
        </mxCell>
        <mxCell id="_ejCU_rRlJFC165mmWsl-114" style="edgeStyle=orthogonalEdgeStyle;rounded=0;orthogonalLoop=1;jettySize=auto;html=1;fontFamily=Helvetica;fontSize=12;fontColor=default;labelBackgroundColor=light-dark(#000000,#000000);entryX=0.5;entryY=0;entryDx=0;entryDy=0;" edge="1" parent="1" source="_ejCU_rRlJFC165mmWsl-93" target="_ejCU_rRlJFC165mmWsl-113">
          <mxGeometry relative="1" as="geometry">
            <mxPoint x="179.5" y="652.4209582010906" as="targetPoint" />
          </mxGeometry>
        </mxCell>
        <mxCell id="_ejCU_rRlJFC165mmWsl-93" value="&lt;font style=&quot;font-size: 8px;&quot;&gt;Remplir le formulaire&lt;/font&gt;" style="text;html=1;align=center;verticalAlign=middle;whiteSpace=wrap;rounded=0;fontFamily=Helvetica;fontSize=12;fontColor=default;labelBackgroundColor=none;" vertex="1" parent="1">
          <mxGeometry x="133" y="591" width="93" height="30" as="geometry" />
        </mxCell>
        <mxCell id="_ejCU_rRlJFC165mmWsl-112" value="" style="rounded=1;whiteSpace=wrap;html=1;arcSize=40;fontColor=#000000;fillColor=light-dark(#FFFFFF,#FFFFFF);strokeColor=light-dark(#000000, #ff9090);fillStyle=solid;pointerEvents=0;align=center;verticalAlign=top;fontFamily=Helvetica;fontSize=12;labelBackgroundColor=light-dark(#000000,#000000);" vertex="1" parent="1">
          <mxGeometry x="124" y="646" width="116" height="29" as="geometry" />
        </mxCell>
        <mxCell id="_ejCU_rRlJFC165mmWsl-113" value="&lt;font style=&quot;font-size: 8px;&quot;&gt;Soumettre le formulaire&lt;/font&gt;" style="text;html=1;align=center;verticalAlign=middle;whiteSpace=wrap;rounded=0;fontFamily=Helvetica;fontSize=12;fontColor=default;labelBackgroundColor=none;" vertex="1" parent="1">
          <mxGeometry x="134" y="646" width="93" height="30" as="geometry" />
        </mxCell>
        <mxCell id="_ejCU_rRlJFC165mmWsl-120" value="&lt;p style=&quot;margin:0px;margin-top:4px;text-align:center;&quot;&gt;&lt;b&gt;Système bancaire&lt;/b&gt;&lt;/p&gt;" style="verticalAlign=top;align=left;overflow=fill;html=1;whiteSpace=wrap;movable=1;resizable=1;rotatable=1;deletable=1;editable=1;locked=0;connectable=1;" vertex="1" parent="1">
          <mxGeometry x="603" y="34" width="267" height="903" as="geometry" />
        </mxCell>
        <mxCell id="_ejCU_rRlJFC165mmWsl-173" style="edgeStyle=orthogonalEdgeStyle;rounded=0;orthogonalLoop=1;jettySize=auto;html=1;fontFamily=Helvetica;fontSize=12;fontColor=default;labelBackgroundColor=light-dark(#000000,#000000);" edge="1" parent="1" source="_ejCU_rRlJFC165mmWsl-167">
          <mxGeometry relative="1" as="geometry">
            <mxPoint x="738.9999999999998" y="533.3654365539551" as="targetPoint" />
          </mxGeometry>
        </mxCell>
        <mxCell id="_ejCU_rRlJFC165mmWsl-167" value="" style="rounded=1;whiteSpace=wrap;html=1;arcSize=40;fontColor=#000000;fillColor=light-dark(#FFFFFF,#FFFFFF);strokeColor=light-dark(#000000, #ff9090);fillStyle=solid;pointerEvents=0;align=center;verticalAlign=top;fontFamily=Helvetica;fontSize=12;labelBackgroundColor=light-dark(#000000,#000000);" vertex="1" parent="1">
          <mxGeometry x="686" y="475" width="106" height="29" as="geometry" />
        </mxCell>
        <mxCell id="_ejCU_rRlJFC165mmWsl-168" value="&lt;font style=&quot;font-size: 8px;&quot;&gt;Initier le paiement&lt;/font&gt;" style="text;html=1;align=center;verticalAlign=middle;whiteSpace=wrap;rounded=0;fontFamily=Helvetica;fontSize=12;fontColor=default;labelBackgroundColor=none;" vertex="1" parent="1">
          <mxGeometry x="686" y="474" width="91" height="30" as="geometry" />
        </mxCell>
        <mxCell id="_ejCU_rRlJFC165mmWsl-201" style="edgeStyle=orthogonalEdgeStyle;rounded=0;orthogonalLoop=1;jettySize=auto;html=1;fontFamily=Helvetica;fontSize=12;fontColor=default;labelBackgroundColor=light-dark(#000000,#000000);exitX=0.5;exitY=1;exitDx=0;exitDy=0;entryX=1;entryY=0.5;entryDx=0;entryDy=0;" edge="1" parent="1" source="_ejCU_rRlJFC165mmWsl-170" target="_ejCU_rRlJFC165mmWsl-95">
          <mxGeometry relative="1" as="geometry">
            <mxPoint x="280" y="615" as="targetPoint" />
            <mxPoint x="748.62" y="572.8672413793105" as="sourcePoint" />
            <Array as="points">
              <mxPoint x="747" y="607" />
              <mxPoint x="272" y="607" />
            </Array>
          </mxGeometry>
        </mxCell>
        <mxCell id="_ejCU_rRlJFC165mmWsl-172" value="" style="rounded=1;whiteSpace=wrap;html=1;arcSize=40;fontColor=#000000;fillColor=light-dark(#FFFFFF,#FFFFFF);strokeColor=light-dark(#000000, #ff9090);fillStyle=solid;pointerEvents=0;align=center;verticalAlign=top;fontFamily=Helvetica;fontSize=12;labelBackgroundColor=light-dark(#000000,#000000);" vertex="1" parent="1">
          <mxGeometry x="693" y="533" width="106" height="29" as="geometry" />
        </mxCell>
        <mxCell id="_ejCU_rRlJFC165mmWsl-170" value="&lt;font style=&quot;font-size: 8px;&quot;&gt;Afficher formulaire d&#39;inscription&lt;/font&gt;" style="text;html=1;align=center;verticalAlign=middle;whiteSpace=wrap;rounded=0;fontFamily=Helvetica;fontSize=12;fontColor=default;labelBackgroundColor=none;" vertex="1" parent="1">
          <mxGeometry x="696" y="535" width="103" height="25" as="geometry" />
        </mxCell>
        <mxCell id="_ejCU_rRlJFC165mmWsl-188" value="&lt;font style=&quot;font-size: 9px;&quot;&gt;&amp;lt;3&lt;/font&gt;" style="text;html=1;align=center;verticalAlign=middle;whiteSpace=wrap;rounded=0;fontFamily=Helvetica;fontSize=12;labelBackgroundColor=light-dark(#ffffff, #000000);fillColor=light-dark(#ffffff, #ededed);" vertex="1" parent="1">
          <mxGeometry x="536" y="494" width="41.5" height="13" as="geometry" />
        </mxCell>
        <mxCell id="_ejCU_rRlJFC165mmWsl-259" style="edgeStyle=orthogonalEdgeStyle;rounded=0;orthogonalLoop=1;jettySize=auto;html=1;fontFamily=Helvetica;fontSize=12;fontColor=default;labelBackgroundColor=light-dark(#000000,#000000);" edge="1" parent="1" source="_ejCU_rRlJFC165mmWsl-203">
          <mxGeometry relative="1" as="geometry">
            <mxPoint x="744.125" y="690.9231199067215" as="targetPoint" />
          </mxGeometry>
        </mxCell>
        <mxCell id="_ejCU_rRlJFC165mmWsl-203" value="" style="rounded=1;whiteSpace=wrap;html=1;arcSize=40;fontColor=#000000;fillColor=light-dark(#FFFFFF,#FFFFFF);strokeColor=light-dark(#000000, #ff9090);fillStyle=solid;pointerEvents=0;align=center;verticalAlign=top;fontFamily=Helvetica;fontSize=12;labelBackgroundColor=light-dark(#000000,#000000);" vertex="1" parent="1">
          <mxGeometry x="693" y="638" width="102.25" height="29" as="geometry" />
        </mxCell>
        <mxCell id="_ejCU_rRlJFC165mmWsl-205" value="&lt;font style=&quot;font-size: 8px;&quot;&gt;Vérifier les conditions&lt;/font&gt;" style="text;html=1;align=center;verticalAlign=middle;whiteSpace=wrap;rounded=0;fontFamily=Helvetica;fontSize=12;fontColor=default;labelBackgroundColor=none;" vertex="1" parent="1">
          <mxGeometry x="696" y="642" width="93" height="21" as="geometry" />
        </mxCell>
        <mxCell id="_ejCU_rRlJFC165mmWsl-222" style="edgeStyle=orthogonalEdgeStyle;rounded=0;orthogonalLoop=1;jettySize=auto;html=1;entryX=1;entryY=0.75;entryDx=0;entryDy=0;fontFamily=Helvetica;fontSize=12;fontColor=default;labelBackgroundColor=light-dark(#000000,#000000);" edge="1" parent="1" source="_ejCU_rRlJFC165mmWsl-220" target="_ejCU_rRlJFC165mmWsl-79">
          <mxGeometry relative="1" as="geometry" />
        </mxCell>
        <mxCell id="_ejCU_rRlJFC165mmWsl-220" value="" style="rounded=1;whiteSpace=wrap;html=1;arcSize=40;fontColor=#000000;fillColor=light-dark(#FFFFFF,#FFFFFF);strokeColor=light-dark(#000000, #ff9090);fillStyle=solid;pointerEvents=0;align=center;verticalAlign=top;fontFamily=Helvetica;fontSize=12;labelBackgroundColor=light-dark(#000000,#000000);" vertex="1" parent="1">
          <mxGeometry x="395.5" y="322" width="116" height="29" as="geometry" />
        </mxCell>
        <mxCell id="_ejCU_rRlJFC165mmWsl-221" value="&lt;font style=&quot;font-size: 8px;&quot;&gt;Afficher le formulaire&lt;/font&gt;" style="text;html=1;align=center;verticalAlign=middle;whiteSpace=wrap;rounded=0;fontFamily=Helvetica;fontSize=12;fontColor=default;labelBackgroundColor=none;" vertex="1" parent="1">
          <mxGeometry x="402.5" y="321" width="103" height="30" as="geometry" />
        </mxCell>
        <mxCell id="_ejCU_rRlJFC165mmWsl-234" style="edgeStyle=orthogonalEdgeStyle;rounded=0;orthogonalLoop=1;jettySize=auto;html=1;entryX=0;entryY=0.5;entryDx=0;entryDy=0;fontFamily=Helvetica;fontSize=12;fontColor=default;labelBackgroundColor=light-dark(#000000,#000000);" edge="1" parent="1" source="_ejCU_rRlJFC165mmWsl-227" target="_ejCU_rRlJFC165mmWsl-232">
          <mxGeometry relative="1" as="geometry" />
        </mxCell>
        <mxCell id="_ejCU_rRlJFC165mmWsl-227" value="" style="rounded=1;whiteSpace=wrap;html=1;arcSize=40;fontColor=#000000;fillColor=light-dark(#FFFFFF,#FFFFFF);strokeColor=light-dark(#000000, #ff9090);fillStyle=solid;pointerEvents=0;align=center;verticalAlign=top;fontFamily=Helvetica;fontSize=12;labelBackgroundColor=light-dark(#000000,#000000);" vertex="1" parent="1">
          <mxGeometry x="129" y="368" width="116" height="29" as="geometry" />
        </mxCell>
        <mxCell id="_ejCU_rRlJFC165mmWsl-228" value="&lt;font style=&quot;font-size: 8px;&quot;&gt;Soumettre le formulaire&lt;/font&gt;" style="text;html=1;align=center;verticalAlign=middle;whiteSpace=wrap;rounded=0;fontFamily=Helvetica;fontSize=12;fontColor=default;labelBackgroundColor=none;" vertex="1" parent="1">
          <mxGeometry x="139" y="368" width="93" height="30" as="geometry" />
        </mxCell>
        <mxCell id="_ejCU_rRlJFC165mmWsl-232" value="" style="rounded=1;whiteSpace=wrap;html=1;arcSize=40;fontColor=#000000;fillColor=light-dark(#FFFFFF,#FFFFFF);strokeColor=light-dark(#000000, #ff9090);fillStyle=solid;pointerEvents=0;align=center;verticalAlign=top;fontFamily=Helvetica;fontSize=12;labelBackgroundColor=light-dark(#000000,#000000);" vertex="1" parent="1">
          <mxGeometry x="394" y="368" width="116" height="29" as="geometry" />
        </mxCell>
        <mxCell id="_ejCU_rRlJFC165mmWsl-248" style="edgeStyle=orthogonalEdgeStyle;rounded=0;orthogonalLoop=1;jettySize=auto;html=1;entryX=0.5;entryY=0;entryDx=0;entryDy=0;fontFamily=Helvetica;fontSize=12;fontColor=default;labelBackgroundColor=light-dark(#000000,#000000);" edge="1" parent="1" source="_ejCU_rRlJFC165mmWsl-233" target="_ejCU_rRlJFC165mmWsl-235">
          <mxGeometry relative="1" as="geometry" />
        </mxCell>
        <mxCell id="_ejCU_rRlJFC165mmWsl-233" value="&lt;font style=&quot;font-size: 8px;&quot;&gt;Vérifier les informations&lt;/font&gt;" style="text;html=1;align=center;verticalAlign=middle;whiteSpace=wrap;rounded=0;fontFamily=Helvetica;fontSize=12;fontColor=default;labelBackgroundColor=none;" vertex="1" parent="1">
          <mxGeometry x="404" y="368" width="93" height="30" as="geometry" />
        </mxCell>
        <mxCell id="_ejCU_rRlJFC165mmWsl-253" style="edgeStyle=orthogonalEdgeStyle;rounded=0;orthogonalLoop=1;jettySize=auto;html=1;entryX=0;entryY=0.5;entryDx=0;entryDy=0;fontFamily=Helvetica;fontSize=12;fontColor=default;labelBackgroundColor=light-dark(#000000,#000000);exitX=0;exitY=0.5;exitDx=0;exitDy=0;" edge="1" parent="1">
          <mxGeometry relative="1" as="geometry">
            <mxPoint x="435.5" y="431.02999999999986" as="sourcePoint" />
            <mxPoint x="686" y="489.03" as="targetPoint" />
            <Array as="points">
              <mxPoint x="372" y="431" />
              <mxPoint x="372" y="602" />
              <mxPoint x="630" y="602" />
              <mxPoint x="630" y="489" />
            </Array>
          </mxGeometry>
        </mxCell>
        <mxCell id="_ejCU_rRlJFC165mmWsl-235" value="" style="rhombus;whiteSpace=wrap;html=1;fontColor=#000000;fillColor=#FFFFFF;strokeColor=#000000;fillStyle=solid;pointerEvents=0;align=center;verticalAlign=top;fontFamily=Helvetica;fontSize=12;labelBackgroundColor=light-dark(#000000,#000000);" vertex="1" parent="1">
          <mxGeometry x="435.5" y="418" width="31.5" height="26" as="geometry" />
        </mxCell>
        <mxCell id="_ejCU_rRlJFC165mmWsl-237" value="" style="rounded=1;whiteSpace=wrap;html=1;arcSize=40;fontColor=#000000;fillColor=light-dark(#FFFFFF,#FFFFFF);strokeColor=light-dark(#000000, #ff9090);fillStyle=solid;pointerEvents=0;align=center;verticalAlign=top;fontFamily=Helvetica;fontSize=12;labelBackgroundColor=light-dark(#000000,#000000);" vertex="1" parent="1">
          <mxGeometry x="481" y="451" width="82" height="29" as="geometry" />
        </mxCell>
        <mxCell id="_ejCU_rRlJFC165mmWsl-238" style="edgeStyle=orthogonalEdgeStyle;rounded=0;orthogonalLoop=1;jettySize=auto;html=1;fontFamily=Helvetica;fontSize=12;fontColor=default;labelBackgroundColor=light-dark(#000000,#000000);" edge="1" parent="1">
          <mxGeometry relative="1" as="geometry">
            <mxPoint x="517.75" y="503" as="targetPoint" />
            <mxPoint x="517.75" y="485" as="sourcePoint" />
          </mxGeometry>
        </mxCell>
        <mxCell id="_ejCU_rRlJFC165mmWsl-239" value="&lt;font style=&quot;font-size: 8px;&quot;&gt;Message d&#39;erreur&lt;/font&gt;" style="text;html=1;align=center;verticalAlign=middle;whiteSpace=wrap;rounded=0;fontFamily=Helvetica;fontSize=12;fontColor=default;labelBackgroundColor=none;" vertex="1" parent="1">
          <mxGeometry x="472.5" y="452" width="93" height="30" as="geometry" />
        </mxCell>
        <mxCell id="_ejCU_rRlJFC165mmWsl-245" style="edgeStyle=orthogonalEdgeStyle;rounded=0;orthogonalLoop=1;jettySize=auto;html=1;exitX=0.5;exitY=1;exitDx=0;exitDy=0;entryX=0.5;entryY=0;entryDx=0;entryDy=0;fontFamily=Helvetica;fontSize=12;fontColor=default;labelBackgroundColor=light-dark(#000000,#000000);" edge="1" parent="1" source="_ejCU_rRlJFC165mmWsl-246">
          <mxGeometry relative="1" as="geometry">
            <mxPoint x="518.75" y="522" as="sourcePoint" />
            <mxPoint x="517.5" y="531" as="targetPoint" />
          </mxGeometry>
        </mxCell>
        <mxCell id="_ejCU_rRlJFC165mmWsl-250" style="edgeStyle=orthogonalEdgeStyle;rounded=0;orthogonalLoop=1;jettySize=auto;html=1;entryX=1;entryY=0.5;entryDx=0;entryDy=0;fontFamily=Helvetica;fontSize=12;fontColor=default;labelBackgroundColor=light-dark(#000000,#000000);" edge="1" parent="1" source="_ejCU_rRlJFC165mmWsl-246" target="_ejCU_rRlJFC165mmWsl-220">
          <mxGeometry relative="1" as="geometry">
            <Array as="points">
              <mxPoint x="580" y="510" />
              <mxPoint x="580" y="336" />
            </Array>
          </mxGeometry>
        </mxCell>
        <mxCell id="_ejCU_rRlJFC165mmWsl-246" value="" style="rhombus;whiteSpace=wrap;html=1;fontColor=#000000;fillColor=#FFFFFF;strokeColor=#000000;fillStyle=solid;pointerEvents=0;align=center;verticalAlign=top;fontFamily=Helvetica;fontSize=12;labelBackgroundColor=light-dark(#000000,#000000);" vertex="1" parent="1">
          <mxGeometry x="508.75" y="503" width="18" height="15" as="geometry" />
        </mxCell>
        <mxCell id="_ejCU_rRlJFC165mmWsl-249" style="edgeStyle=orthogonalEdgeStyle;rounded=0;orthogonalLoop=1;jettySize=auto;html=1;entryX=0.567;entryY=0.051;entryDx=0;entryDy=0;entryPerimeter=0;fontFamily=Helvetica;fontSize=12;fontColor=default;labelBackgroundColor=light-dark(#000000,#000000);" edge="1" parent="1" source="_ejCU_rRlJFC165mmWsl-235" target="_ejCU_rRlJFC165mmWsl-239">
          <mxGeometry relative="1" as="geometry" />
        </mxCell>
        <mxCell id="_ejCU_rRlJFC165mmWsl-255" style="edgeStyle=orthogonalEdgeStyle;rounded=0;orthogonalLoop=1;jettySize=auto;html=1;fontFamily=Helvetica;fontSize=12;fontColor=default;labelBackgroundColor=light-dark(#000000,#000000);" edge="1" parent="1" source="_ejCU_rRlJFC165mmWsl-112">
          <mxGeometry relative="1" as="geometry">
            <mxPoint x="692.4826744342672" y="660.5000000000002" as="targetPoint" />
          </mxGeometry>
        </mxCell>
        <mxCell id="_ejCU_rRlJFC165mmWsl-262" style="edgeStyle=orthogonalEdgeStyle;rounded=0;orthogonalLoop=1;jettySize=auto;html=1;entryX=0.5;entryY=0;entryDx=0;entryDy=0;fontFamily=Helvetica;fontSize=12;fontColor=default;labelBackgroundColor=light-dark(#000000,#000000);" edge="1" parent="1" source="_ejCU_rRlJFC165mmWsl-256" target="_ejCU_rRlJFC165mmWsl-260">
          <mxGeometry relative="1" as="geometry" />
        </mxCell>
        <mxCell id="_ejCU_rRlJFC165mmWsl-256" value="" style="rhombus;whiteSpace=wrap;html=1;fontColor=#000000;fillColor=#FFFFFF;strokeColor=#000000;fillStyle=solid;pointerEvents=0;align=center;verticalAlign=top;fontFamily=Helvetica;fontSize=12;labelBackgroundColor=light-dark(#000000,#000000);" vertex="1" parent="1">
          <mxGeometry x="729" y="692" width="31.5" height="26" as="geometry" />
        </mxCell>
        <mxCell id="_ejCU_rRlJFC165mmWsl-258" style="edgeStyle=orthogonalEdgeStyle;rounded=0;orthogonalLoop=1;jettySize=auto;html=1;entryX=0.567;entryY=0.051;entryDx=0;entryDy=0;entryPerimeter=0;fontFamily=Helvetica;fontSize=12;fontColor=default;labelBackgroundColor=light-dark(#000000,#000000);" edge="1" parent="1" source="_ejCU_rRlJFC165mmWsl-256" target="_ejCU_rRlJFC165mmWsl-257">
          <mxGeometry relative="1" as="geometry" />
        </mxCell>
        <mxCell id="_ejCU_rRlJFC165mmWsl-260" value="" style="rounded=1;whiteSpace=wrap;html=1;arcSize=40;fontColor=#000000;fillColor=light-dark(#FFFFFF,#FFFFFF);strokeColor=light-dark(#000000, #ff9090);fillStyle=solid;pointerEvents=0;align=center;verticalAlign=top;fontFamily=Helvetica;fontSize=12;labelBackgroundColor=light-dark(#000000,#000000);" vertex="1" parent="1">
          <mxGeometry x="624" y="726" width="102.25" height="29" as="geometry" />
        </mxCell>
        <mxCell id="_ejCU_rRlJFC165mmWsl-263" value="" style="rounded=1;whiteSpace=wrap;html=1;arcSize=40;fontColor=#000000;fillColor=light-dark(#FFFFFF,#FFFFFF);strokeColor=light-dark(#000000, #ff9090);fillStyle=solid;pointerEvents=0;align=center;verticalAlign=top;fontFamily=Helvetica;fontSize=12;labelBackgroundColor=light-dark(#000000,#000000);" vertex="1" parent="1">
          <mxGeometry x="756" y="728" width="81.63" height="29" as="geometry" />
        </mxCell>
        <mxCell id="_ejCU_rRlJFC165mmWsl-276" style="edgeStyle=orthogonalEdgeStyle;rounded=0;orthogonalLoop=1;jettySize=auto;html=1;entryX=1;entryY=0.5;entryDx=0;entryDy=0;fontFamily=Helvetica;fontSize=12;fontColor=default;labelBackgroundColor=light-dark(#000000,#000000);exitX=1;exitY=0.5;exitDx=0;exitDy=0;" edge="1" parent="1" source="_ejCU_rRlJFC165mmWsl-277" target="_ejCU_rRlJFC165mmWsl-170">
          <mxGeometry relative="1" as="geometry">
            <Array as="points">
              <mxPoint x="858" y="783" />
              <mxPoint x="858" y="548" />
            </Array>
          </mxGeometry>
        </mxCell>
        <mxCell id="_ejCU_rRlJFC165mmWsl-278" style="edgeStyle=orthogonalEdgeStyle;rounded=0;orthogonalLoop=1;jettySize=auto;html=1;fontFamily=Helvetica;fontSize=12;fontColor=default;labelBackgroundColor=light-dark(#000000,#000000);" edge="1" parent="1" source="_ejCU_rRlJFC165mmWsl-257">
          <mxGeometry relative="1" as="geometry">
            <mxPoint x="798" y="775.0321032206218" as="targetPoint" />
          </mxGeometry>
        </mxCell>
        <mxCell id="_ejCU_rRlJFC165mmWsl-257" value="&lt;font style=&quot;font-size: 8px;&quot;&gt;Message d&#39;erreur&lt;/font&gt;" style="text;html=1;align=center;verticalAlign=middle;whiteSpace=wrap;rounded=0;fontFamily=Helvetica;fontSize=12;fontColor=default;labelBackgroundColor=none;" vertex="1" parent="1">
          <mxGeometry x="761" y="725" width="74" height="30" as="geometry" />
        </mxCell>
        <mxCell id="_ejCU_rRlJFC165mmWsl-265" style="edgeStyle=orthogonalEdgeStyle;rounded=0;orthogonalLoop=1;jettySize=auto;html=1;fontFamily=Helvetica;fontSize=12;fontColor=default;labelBackgroundColor=light-dark(#000000,#000000);" edge="1" parent="1" source="_ejCU_rRlJFC165mmWsl-264">
          <mxGeometry relative="1" as="geometry">
            <mxPoint x="675.1300000000001" y="788.624241269868" as="targetPoint" />
          </mxGeometry>
        </mxCell>
        <mxCell id="_ejCU_rRlJFC165mmWsl-264" value="&lt;font style=&quot;font-size: 8px;&quot;&gt;Envoyer une facture&lt;/font&gt;" style="text;html=1;align=center;verticalAlign=middle;whiteSpace=wrap;rounded=0;fontFamily=Helvetica;fontSize=12;fontColor=default;labelBackgroundColor=none;" vertex="1" parent="1">
          <mxGeometry x="628.63" y="725" width="93" height="30" as="geometry" />
        </mxCell>
        <mxCell id="_ejCU_rRlJFC165mmWsl-266" value="" style="rounded=1;whiteSpace=wrap;html=1;arcSize=40;fontColor=#000000;fillColor=light-dark(#FFFFFF,#FFFFFF);strokeColor=light-dark(#000000, #ff9090);fillStyle=solid;pointerEvents=0;align=center;verticalAlign=top;fontFamily=Helvetica;fontSize=12;labelBackgroundColor=light-dark(#000000,#000000);" vertex="1" parent="1">
          <mxGeometry x="624" y="791" width="102.25" height="29" as="geometry" />
        </mxCell>
        <mxCell id="_ejCU_rRlJFC165mmWsl-271" style="edgeStyle=orthogonalEdgeStyle;rounded=0;orthogonalLoop=1;jettySize=auto;html=1;entryX=0.5;entryY=0;entryDx=0;entryDy=0;fontFamily=Helvetica;fontSize=12;fontColor=default;labelBackgroundColor=light-dark(#000000,#000000);" edge="1" parent="1" source="_ejCU_rRlJFC165mmWsl-267" target="_ejCU_rRlJFC165mmWsl-270">
          <mxGeometry relative="1" as="geometry" />
        </mxCell>
        <mxCell id="_ejCU_rRlJFC165mmWsl-267" value="&lt;font style=&quot;font-size: 8px;&quot;&gt;Réservation réussie&lt;/font&gt;" style="text;html=1;align=center;verticalAlign=middle;whiteSpace=wrap;rounded=0;fontFamily=Helvetica;fontSize=12;fontColor=default;labelBackgroundColor=none;" vertex="1" parent="1">
          <mxGeometry x="628.63" y="790" width="93" height="30" as="geometry" />
        </mxCell>
        <mxCell id="_ejCU_rRlJFC165mmWsl-270" value="" style="ellipse;html=1;shape=endState;fillColor=#000000;strokeColor=#000000;fillStyle=solid;pointerEvents=0;align=center;verticalAlign=top;fontFamily=Helvetica;fontSize=12;fontColor=default;labelBackgroundColor=light-dark(#000000,#000000);" vertex="1" parent="1">
          <mxGeometry x="663.63" y="846" width="23" height="23" as="geometry" />
        </mxCell>
        <mxCell id="_ejCU_rRlJFC165mmWsl-277" value="" style="rhombus;whiteSpace=wrap;html=1;fontColor=#000000;fillColor=#FFFFFF;strokeColor=#000000;fillStyle=solid;pointerEvents=0;align=center;verticalAlign=top;fontFamily=Helvetica;fontSize=12;labelBackgroundColor=light-dark(#000000,#000000);" vertex="1" parent="1">
          <mxGeometry x="789" y="775" width="18" height="15" as="geometry" />
        </mxCell>
        <mxCell id="_ejCU_rRlJFC165mmWsl-295" style="edgeStyle=orthogonalEdgeStyle;rounded=0;orthogonalLoop=1;jettySize=auto;html=1;fontFamily=Helvetica;fontSize=12;fontColor=default;labelBackgroundColor=light-dark(#000000,#000000);" edge="1" parent="1" source="_ejCU_rRlJFC165mmWsl-281">
          <mxGeometry relative="1" as="geometry">
            <mxPoint x="517.75" y="575.8020599365234" as="targetPoint" />
          </mxGeometry>
        </mxCell>
        <mxCell id="_ejCU_rRlJFC165mmWsl-281" value="" style="rounded=1;whiteSpace=wrap;html=1;arcSize=40;fontColor=#000000;fillColor=light-dark(#FFFFFF,#FFFFFF);strokeColor=light-dark(#000000, #ff9090);fillStyle=solid;pointerEvents=0;align=center;verticalAlign=top;fontFamily=Helvetica;fontSize=12;labelBackgroundColor=light-dark(#000000,#000000);" vertex="1" parent="1">
          <mxGeometry x="464.75" y="531" width="106" height="24" as="geometry" />
        </mxCell>
        <mxCell id="_ejCU_rRlJFC165mmWsl-279" value="&lt;font style=&quot;font-size: 8px;&quot;&gt;Bloquer accès&lt;/font&gt;" style="text;html=1;align=center;verticalAlign=middle;whiteSpace=wrap;rounded=0;fontFamily=Helvetica;fontSize=12;fontColor=default;labelBackgroundColor=none;" vertex="1" parent="1">
          <mxGeometry x="471.25" y="527" width="93" height="30" as="geometry" />
        </mxCell>
        <mxCell id="_ejCU_rRlJFC165mmWsl-282" value="&lt;font style=&quot;font-size: 9px;&quot;&gt;&amp;lt;3&lt;/font&gt;" style="text;html=1;align=center;verticalAlign=middle;whiteSpace=wrap;rounded=0;fontFamily=Helvetica;fontSize=12;labelBackgroundColor=light-dark(#ffffff, #000000);fillColor=light-dark(#ffffff, #ededed);" vertex="1" parent="1">
          <mxGeometry x="811" y="767" width="41.5" height="13" as="geometry" />
        </mxCell>
        <mxCell id="_ejCU_rRlJFC165mmWsl-284" value="" style="rounded=1;whiteSpace=wrap;html=1;arcSize=40;fontColor=#000000;fillColor=light-dark(#FFFFFF,#FFFFFF);strokeColor=light-dark(#000000, #ff9090);fillStyle=solid;pointerEvents=0;align=center;verticalAlign=top;fontFamily=Helvetica;fontSize=12;labelBackgroundColor=light-dark(#000000,#000000);" vertex="1" parent="1">
          <mxGeometry x="751" y="821.5" width="106" height="23.5" as="geometry" />
        </mxCell>
        <mxCell id="_ejCU_rRlJFC165mmWsl-285" value="&lt;font style=&quot;font-size: 8px;&quot;&gt;Bloquer accès&lt;/font&gt;" style="text;html=1;align=center;verticalAlign=middle;whiteSpace=wrap;rounded=0;fontFamily=Helvetica;fontSize=12;fontColor=default;labelBackgroundColor=none;" vertex="1" parent="1">
          <mxGeometry x="757.5" y="816" width="93" height="30" as="geometry" />
        </mxCell>
        <mxCell id="_ejCU_rRlJFC165mmWsl-288" style="edgeStyle=orthogonalEdgeStyle;rounded=0;orthogonalLoop=1;jettySize=auto;html=1;fontFamily=Helvetica;fontSize=12;fontColor=default;labelBackgroundColor=light-dark(#000000,#000000);" edge="1" parent="1" source="_ejCU_rRlJFC165mmWsl-277">
          <mxGeometry relative="1" as="geometry">
            <mxPoint x="798" y="822" as="targetPoint" />
          </mxGeometry>
        </mxCell>
        <mxCell id="_ejCU_rRlJFC165mmWsl-290" style="edgeStyle=orthogonalEdgeStyle;rounded=0;orthogonalLoop=1;jettySize=auto;html=1;entryX=0.5;entryY=0;entryDx=0;entryDy=0;fontFamily=Helvetica;fontSize=12;fontColor=default;labelBackgroundColor=light-dark(#000000,#000000);" edge="1" parent="1" target="_ejCU_rRlJFC165mmWsl-291">
          <mxGeometry relative="1" as="geometry">
            <mxPoint x="799.37" y="845" as="sourcePoint" />
          </mxGeometry>
        </mxCell>
        <mxCell id="_ejCU_rRlJFC165mmWsl-291" value="" style="ellipse;html=1;shape=endState;fillColor=#000000;strokeColor=#000000;fillStyle=solid;pointerEvents=0;align=center;verticalAlign=top;fontFamily=Helvetica;fontSize=12;fontColor=default;labelBackgroundColor=light-dark(#000000,#000000);" vertex="1" parent="1">
          <mxGeometry x="788" y="871" width="23" height="23" as="geometry" />
        </mxCell>
        <mxCell id="_ejCU_rRlJFC165mmWsl-292" value="&lt;span&gt;&lt;font style=&quot;color: rgb(0, 0, 0); font-size: 10px;&quot;&gt;[Information correct]&lt;/font&gt;&lt;/span&gt;" style="text;html=1;align=center;verticalAlign=middle;whiteSpace=wrap;rounded=0;fontFamily=Helvetica;fontSize=12;fontColor=#FFFFFF;labelBackgroundColor=light-dark(#ffffff, #000000);" vertex="1" parent="1">
          <mxGeometry x="616" y="671" width="100" height="23" as="geometry" />
        </mxCell>
        <mxCell id="_ejCU_rRlJFC165mmWsl-293" value="&lt;span&gt;&lt;font style=&quot;color: rgb(0, 0, 0); font-size: 10px;&quot;&gt;[Information incorrect]&lt;/font&gt;&lt;/span&gt;" style="text;html=1;align=center;verticalAlign=middle;whiteSpace=wrap;rounded=0;fontFamily=Helvetica;fontSize=12;fontColor=#FFFFFF;labelBackgroundColor=light-dark(#ffffff, #000000);" vertex="1" parent="1">
          <mxGeometry x="756" y="667" width="100" height="23" as="geometry" />
        </mxCell>
        <mxCell id="_ejCU_rRlJFC165mmWsl-294" value="" style="shape=sumEllipse;perimeter=ellipsePerimeter;whiteSpace=wrap;html=1;backgroundOutline=1;fillStyle=solid;pointerEvents=0;align=center;verticalAlign=top;fontFamily=Helvetica;fontSize=12;fontColor=default;labelBackgroundColor=light-dark(#000000,#000000);fillColor=none;gradientColor=none;" vertex="1" parent="1">
          <mxGeometry x="509" y="574" width="20" height="19" as="geometry" />
        </mxCell>
      </root>
    </mxGraphModel>
  </diagram>
</mxfile>
